<svg width="640" height="480" xmlns="http://www.w3.org/2000/svg" xmlns:svg="http://www.w3.org/2000/svg">
 <g>
  <title>Layer 1</title>
  <path fill="#333333" stroke="#000000" stroke-width="9" stroke-dasharray="null" stroke-linejoin="null" stroke-linecap="null" d="m0.66669,70.66666c101.33334,30.33334 288.66666,30 320.66666,30c32,0 220,1 318,-31" id="svg_4"/>
  <path fill="#000000" stroke="#ff0000" stroke-width="16" stroke-dasharray="null" stroke-linejoin="null" stroke-linecap="null" d="m0.66666,82.66666c101.33334,30.33334 288.66666,30 320.66666,30c32,0 220,1 318,-31" fill-opacity="0" id="svg_5"/>
  <path fill="#000000" stroke="#bf0000" stroke-width="4" stroke-dasharray="null" stroke-linejoin="null" stroke-linecap="null" d="m0.66666,92.66666c101.33334,30.33334 288.66666,30 320.66666,30c32,0 220,1 318,-31" fill-opacity="0" id="svg_6"/>
  <rect fill="#ff0000" stroke="#000000" stroke-width="3" stroke-dasharray="null" stroke-linejoin="null" stroke-linecap="null" x="10" y="180" width="620" height="20" id="svg_7" stroke-opacity="0"/>
  <rect fill="#bf0000" stroke="#000000" stroke-width="3" stroke-dasharray="null" stroke-linejoin="null" stroke-linecap="null" x="15" y="200" width="610" height="3" stroke-opacity="0" id="svg_8"/>
  <rect fill="#ff0000" stroke="#000000" stroke-width="3" stroke-dasharray="null" stroke-linejoin="null" stroke-linecap="null" stroke-opacity="0" x="100" y="110" width="40" height="350" id="svg_10" transform="rotate(3, 120, 285)"/>
  <rect fill="#ff0000" stroke="#000000" stroke-width="3" stroke-dasharray="null" stroke-linejoin="null" stroke-linecap="null" stroke-opacity="0" x="500" y="110" width="40" height="350" transform="rotate(-3, 520, 285)" id="svg_11"/>
  <path fill="#ff0000" stroke="#000000" stroke-width="2" stroke-dasharray="null" stroke-linejoin="null" stroke-linecap="null" d="m71,180l0,-13.99999l50.99999,13.99999l-50.99999,0z" id="svg_22" stroke-opacity="0"/>
  <path fill="#ff0000" stroke="#000000" stroke-width="2" stroke-dasharray="null" stroke-linejoin="null" stroke-linecap="null" d="m461.00001,179.99999l0,-13.99999l50.99999,13.99999l-50.99999,0z" stroke-opacity="0" id="svg_24"/>
  <path fill="#ff0000" stroke="#000000" stroke-width="2" stroke-dasharray="null" stroke-linejoin="null" stroke-linecap="null" d="m184.00001,180l0,-13.99999l-53.00001,13.99999l53.00001,0z" stroke-opacity="0" id="svg_25"/>
  <rect fill="#ff7f00" stroke="#000000" stroke-width="3" stroke-dasharray="null" stroke-linejoin="null" stroke-linecap="null" stroke-opacity="0" x="140" y="110" width="3" height="350" transform="rotate(3, 141.5, 285)" id="svg_12"/>
  <rect fill="#ff7f00" stroke="#000000" stroke-width="3" stroke-dasharray="null" stroke-linejoin="null" stroke-linecap="null" stroke-opacity="0" x="497" y="110" width="3" height="350" transform="rotate(-3, 498.5, 285)" id="svg_13"/>
  <rect fill="#4c4c4c" stroke="#000000" stroke-width="3" stroke-dasharray="null" stroke-linejoin="null" stroke-linecap="null" stroke-opacity="0" x="80" y="420" width="60" height="5" id="svg_14"/>
  <rect fill="#191919" stroke="#000000" stroke-width="3" stroke-dasharray="null" stroke-linejoin="null" stroke-linecap="null" stroke-opacity="0" x="75" y="425" width="70" height="55" id="svg_19"/>
  <rect fill="#191919" stroke="#000000" stroke-width="3" stroke-dasharray="null" stroke-linejoin="null" stroke-linecap="null" stroke-opacity="0" x="495" y="425" width="70" height="55" id="svg_18"/>
  <rect fill="#4c4c4c" stroke="#000000" stroke-width="3" stroke-dasharray="null" stroke-linejoin="null" stroke-linecap="null" stroke-opacity="0" x="500" y="420" width="60" height="5" id="svg_17"/>
  <path fill="#ff0000" stroke="#000000" stroke-width="2" stroke-dasharray="null" stroke-linejoin="null" stroke-linecap="null" d="m564.00004,180l0,-13.99999l-53.00001,13.99999l53.00001,0z" stroke-opacity="0" id="svg_26"/>
  <rect fill="#bf0000" stroke="#000000" stroke-width="3" stroke-dasharray="null" stroke-linejoin="null" stroke-linecap="null" stroke-opacity="0" x="292.50001" y="180" width="55" height="12" id="svg_27"/>
  <rect fill="#191919" stroke="#000000" stroke-width="3" stroke-dasharray="null" stroke-linejoin="null" stroke-linecap="null" stroke-opacity="0" x="285" y="110" width="70" height="90" id="svg_20"/>
  <rect fill="#000000" stroke="#ffff56" stroke-width="2" stroke-dasharray="null" stroke-linejoin="null" stroke-linecap="null" x="295" y="120" width="50" height="70" fill-opacity="0" id="svg_21"/>
  <image href="BonkLogo.webp" height="50" width="50" y="130" x="295" />
 </g>
</svg>